<svg xmlns="http://www.w3.org/2000/svg" width="212.376" height="25.123" viewBox="0 0 212.376 25.123">
  <g id="Monet_logo" transform="translate(0.138)">
    <g id="Group_518" data-name="Group 518" transform="translate(99.678 5.13)">
      <path id="Path_1073" data-name="Path 1073" d="M171.1,16.32v7.52h2.915l.058-4.488.058-4.488h2.915l.058,1.516.058,1.574h2.915V14.746l1.4.058,1.4.058.058,4.488.058,4.488h2.915V8.8h-2.915v2.915h-2.915v2.915h-2.915V11.715h-3.148V8.8H171.1v7.52Z" transform="translate(-171.1 -8.8)" fill="#fff"/>
      <path id="Path_1074" data-name="Path 1074" d="M216.215,10.316v1.457H213.3v9.093h2.915v2.915h8.86V20.866h2.915V11.773h-2.915V8.8h-8.86v1.516Zm8.744,6v4.43l-4.372.058-4.372.058V11.773l4.372.058,4.372.058Z" transform="translate(-188.701 -8.8)" fill="#fff"/>
      <path id="Path_1075" data-name="Path 1075" d="M255,16.32v7.52h2.915V14.746l1.4.058,1.4.058.058,1.516.058,1.574h2.915v2.915h2.915v2.915h2.915V8.8h-2.915v9.093l-1.4-.058-1.4-.058L263.8,16.2l-.058-1.516h-2.915V11.773h-2.915V8.8H255Z" transform="translate(-206.094 -8.8)" fill="#fff"/>
      <path id="Path_1076" data-name="Path 1076" d="M296.8,16.32v7.52h14.806V20.866l-5.829-.058-5.829-.058-.058-1.4-.058-1.4h8.86V14.8h-8.86l.058-1.4.058-1.4,5.829-.058,5.829-.058V8.8H296.8Z" transform="translate(-223.528 -8.8)" fill="#fff"/>
      <path id="Path_1077" data-name="Path 1077" d="M338.458,10.316v1.457H344.4V23.781h2.915l.058-5.946.058-5.946,3.031-.058,2.973-.058V8.8H338.4v1.516Z" transform="translate(-240.879 -8.8)" fill="#fff"/>
    </g>
    <path id="Path_1078" data-name="Path 1078" d="M11.617,1.791,12.433.8H29.046l.933.874V13.8l-1.282.816H12.957l-1.049-.525L11.5,12.575Z" transform="translate(-4.854 -0.334)" fill="#ed174f"/>
    <path id="Path_1079" data-name="Path 1079" d="M58.917,1.791,59.674.8H76.346l.933.874V13.8L76,14.615H60.257l-1.049-.525L58.8,12.575Z" transform="translate(-24.582 -0.334)" fill="#1c3f94"/>
    <path id="Path_1080" data-name="Path 1080" d="M106.817,1.791,107.633.8H124.3l.933.874V13.8l-1.341.816h-15.68l-1.049-.525-.466-1.516Z" transform="translate(-44.561 -0.334)" fill="#00aa4f"/>
    <path id="Path_1081" data-name="Path 1081" d="M119.582,26.54l1.749,1.749v4.663l-.466.466a1.311,1.311,0,0,0-.466.991c0,.641.466.933,1.749.933,1.632,0,2.1-.758,1.166-1.807-.466-.525-.466-.641-.466-2.157V29.746l.583.583a1.818,1.818,0,0,1,.641,1.282,2.213,2.213,0,0,0,.35,1.049c.291.291.408.35.816.175a3.177,3.177,0,0,0,1.807-2.04c0-.466-.583-.874-1.282-.874-.525,0-.758-.175-1.749-1.166l-1.166-1.166v-2.8c-1.749,0-3.5-.291-5.246-.291Z" transform="translate(-49.107 -10.219)" fill="#fff"/>
    <path id="Path_1082" data-name="Path 1082" d="M101.763,20.152c-.525.175-.583.175-2.915-1.4-1.282-.874-2.39-1.632-2.39-1.69a18.209,18.209,0,0,1,2.157-1.574h0l1.341-.933.758-.525.175-.117h0l.525-.35V11.7l-1.049.7h0l-.058.058-1.108.7L97.274,14.44h0c-1.865,1.282-2.157,1.574-2.332,1.982a1.775,1.775,0,0,0,.291,1.632,29.572,29.572,0,0,0,2.681,1.924c2.215,1.516,2.39,1.632,2.39,2.157a1,1,0,0,0,1.632.816,3.566,3.566,0,0,0,1.108-2.04C103.162,20.269,102.52,19.919,101.763,20.152Z" transform="translate(-39.624 -4.88)" fill="#fff"/>
    <path id="Path_1083" data-name="Path 1083" d="M140.8,13.957c2.681,1.807,3.089,2.157,3.206,2.623a1.775,1.775,0,0,1-.291,1.632,29.575,29.575,0,0,1-2.681,1.924c-2.215,1.516-2.39,1.632-2.39,2.157a1,1,0,0,1-1.632.816,3.566,3.566,0,0,1-1.108-2.04.944.944,0,0,1,1.4-.874c.525.175.583.175,2.915-1.4,1.282-.874,2.39-1.632,2.39-1.69a22.232,22.232,0,0,0-2.448-1.749l-2.448-1.632V11.8Z" transform="translate(-56.74 -4.922)" fill="#fff"/>
    <path id="Path_1084" data-name="Path 1084" d="M71.865,26.624l1.749,1.749v4.663l-.466.466a1.311,1.311,0,0,0-.466.991c0,.641.466.933,1.749.933,1.632,0,2.1-.758,1.166-1.807-.466-.525-.466-.641-.466-2.157V29.83l.583.583a1.818,1.818,0,0,1,.641,1.282,2.213,2.213,0,0,0,.35,1.049c.291.291.408.35.816.175a3.177,3.177,0,0,0,1.807-2.04c0-.466-.583-.874-1.282-.874-.525,0-.758-.175-1.749-1.166L75.13,27.673v-2.8c-1.749,0-3.439-.175-5.13-.175Z" transform="translate(-29.254 -10.302)" fill="#fff"/>
    <path id="Path_1085" data-name="Path 1085" d="M54,20.152c-.525.175-.583.175-2.915-1.4-1.282-.874-2.39-1.632-2.39-1.69a18.209,18.209,0,0,1,2.157-1.574h0l1.341-.933.758-.525.175-.117h0l.525-.35V11.7l-.991.758h0l-.058.058-1.108.7L49.574,14.5h0c-1.865,1.282-2.157,1.574-2.332,1.982a1.775,1.775,0,0,0,.291,1.632,29.573,29.573,0,0,0,2.681,1.924c2.215,1.516,2.39,1.632,2.39,2.157a1,1,0,0,0,1.632.816,3.566,3.566,0,0,0,1.108-2.04C55.4,20.269,54.762,19.919,54,20.152Z" transform="translate(-19.728 -4.88)" fill="#fff"/>
    <path id="Path_1086" data-name="Path 1086" d="M93.1,13.957c2.681,1.807,3.089,2.157,3.206,2.623a1.775,1.775,0,0,1-.291,1.632,29.576,29.576,0,0,1-2.681,1.924c-2.215,1.516-2.39,1.632-2.39,2.157a1,1,0,0,1-1.632.816,3.566,3.566,0,0,1-1.108-2.04.944.944,0,0,1,1.4-.874c.525.175.583.175,2.915-1.4,1.282-.874,2.39-1.632,2.39-1.69a22.234,22.234,0,0,0-2.448-1.749l-2.448-1.632V11.8Z" transform="translate(-36.845 -4.922)" fill="#fff"/>
    <path id="Path_1087" data-name="Path 1087" d="M24.5,26.457l1.749,1.749v4.663l-.466.466a1.311,1.311,0,0,0-.466.991c0,.641.466.933,1.749.933,1.632,0,2.1-.758,1.166-1.807-.466-.525-.466-.641-.466-2.157V29.663l.583.583a1.818,1.818,0,0,1,.641,1.282,2.213,2.213,0,0,0,.35,1.049c.291.291.408.35.816.175a3.177,3.177,0,0,0,1.807-2.04c0-.466-.583-.874-1.282-.874-.525,0-.758-.175-1.749-1.166l-1.166-1.166v-2.8c-1.749,0-3.614-.408-5.363-.408Z" transform="translate(-9.4 -10.135)" fill="#fff"/>
    <path id="Path_1088" data-name="Path 1088" d="M6.763,20.152c-.525.175-.583.175-2.915-1.4-1.282-.874-2.39-1.632-2.39-1.69a18.209,18.209,0,0,1,2.157-1.574h0l1.341-.933.758-.525.175-.117h0l.525-.35V11.7l-1.049.758h0l-.058.058-1.108.7L2.274,14.5h0C.409,15.78.117,16.072-.057,16.48a1.775,1.775,0,0,0,.291,1.632,29.573,29.573,0,0,0,2.681,1.924c2.215,1.516,2.39,1.632,2.39,2.157a1,1,0,0,0,1.632.816,3.566,3.566,0,0,0,1.108-2.04C8.1,20.269,7.52,19.919,6.763,20.152Z" transform="translate(0 -4.88)" fill="#fff"/>
    <path id="Path_1089" data-name="Path 1089" d="M45.838,13.957c2.681,1.807,3.089,2.157,3.206,2.623a1.775,1.775,0,0,1-.291,1.632,29.573,29.573,0,0,1-2.681,1.924c-2.215,1.516-2.39,1.632-2.39,2.157a1,1,0,0,1-1.632.816A3.832,3.832,0,0,1,41,21.068a.944.944,0,0,1,1.4-.874c.525.175.583.175,2.915-1.4,1.282-.874,2.39-1.632,2.39-1.69a22.234,22.234,0,0,0-2.448-1.749l-2.507-1.632V11.8Z" transform="translate(-17.158 -4.922)" fill="#fff"/>
    <g id="Group_519" data-name="Group 519" transform="translate(6.355)">
      <path id="Path_1090" data-name="Path 1090" d="M28.2,14.573H13.04A2.065,2.065,0,0,1,11,12.533V2.04A2.065,2.065,0,0,1,13.04,0H28.2a2.027,2.027,0,0,1,2.04,2.04V12.591A1.979,1.979,0,0,1,28.2,14.573ZM13.04.7A1.319,1.319,0,0,0,11.7,2.04V12.591a1.319,1.319,0,0,0,1.341,1.341H28.2a1.319,1.319,0,0,0,1.341-1.341V2.04A1.319,1.319,0,0,0,28.2.7Z" transform="translate(-11)" fill="#fff"/>
    </g>
    <g id="Group_520" data-name="Group 520" transform="translate(8.861 2.623)">
      <path id="Path_1091" data-name="Path 1091" d="M28.882,13.827H16a.709.709,0,0,1-.7-.7V5.2a.709.709,0,0,1,.7-.7H28.94a.709.709,0,0,1,.7.7v7.986A.758.758,0,0,1,28.882,13.827ZM16,4.85a.376.376,0,0,0-.35.35v7.986a.376.376,0,0,0,.35.35H28.94a.376.376,0,0,0,.35-.35V5.2a.376.376,0,0,0-.35-.35Z" transform="translate(-15.3 -4.5)" fill="#d5dfed"/>
    </g>
    <g id="Group_521" data-name="Group 521" transform="translate(33.926)">
      <path id="Path_1092" data-name="Path 1092" d="M75.5,14.573H60.34a2.065,2.065,0,0,1-2.04-2.04V2.04A2.065,2.065,0,0,1,60.34,0H75.5a2.065,2.065,0,0,1,2.04,2.04V12.591A2.016,2.016,0,0,1,75.5,14.573ZM60.34.7A1.319,1.319,0,0,0,59,2.04V12.591a1.319,1.319,0,0,0,1.341,1.341H75.5a1.319,1.319,0,0,0,1.341-1.341V2.04A1.319,1.319,0,0,0,75.5.7Z" transform="translate(-58.3)" fill="#fff"/>
    </g>
    <g id="Group_522" data-name="Group 522" transform="translate(36.374 2.623)">
      <path id="Path_1093" data-name="Path 1093" d="M76.082,13.827H63.2a.709.709,0,0,1-.7-.7V5.2a.709.709,0,0,1,.7-.7H76.14a.662.662,0,0,1,.641.7v7.986A.662.662,0,0,1,76.082,13.827ZM63.2,4.85a.376.376,0,0,0-.35.35v7.986a.376.376,0,0,0,.35.35H76.14a.376.376,0,0,0,.35-.35V5.2a.376.376,0,0,0-.35-.35Z" transform="translate(-62.5 -4.5)" fill="#d5dfed"/>
    </g>
    <g id="Group_523" data-name="Group 523" transform="translate(61.789)">
      <path id="Path_1094" data-name="Path 1094" d="M123.3,14.573H108.14a2.065,2.065,0,0,1-2.04-2.04V2.04A2.065,2.065,0,0,1,108.14,0H123.3a2.065,2.065,0,0,1,2.04,2.04V12.591A2.016,2.016,0,0,1,123.3,14.573ZM108.14.7A1.319,1.319,0,0,0,106.8,2.04V12.591a1.319,1.319,0,0,0,1.341,1.341H123.3a1.319,1.319,0,0,0,1.341-1.341V2.04A1.319,1.319,0,0,0,123.3.7Z" transform="translate(-106.1)" fill="#fff"/>
    </g>
    <g id="Group_524" data-name="Group 524" transform="translate(64.237 2.623)">
      <path id="Path_1095" data-name="Path 1095" d="M123.94,13.827H111a.709.709,0,0,1-.7-.7V5.2a.709.709,0,0,1,.7-.7H123.94a.709.709,0,0,1,.7.7v7.986A.745.745,0,0,1,123.94,13.827ZM111,4.85a.376.376,0,0,0-.35.35v7.986a.376.376,0,0,0,.35.35H123.94a.376.376,0,0,0,.35-.35V5.2a.376.376,0,0,0-.35-.35Z" transform="translate(-110.3 -4.5)" fill="#d5dfed"/>
    </g>
  </g>
</svg>
